<?xml version="1.0" encoding="UTF-8" standalone="no"?>
<!-- Created with Inkscape (http://www.inkscape.org/) -->

<svg
   width="148mm"
   height="210mm"
   viewBox="0 0 148 210"
   version="1.1"
   id="svg5473"
   inkscape:version="1.1.2 (0a00cf5339, 2022-02-04)"
   sodipodi:docname="anavi-arrows-back.svg"
   xmlns:inkscape="http://www.inkscape.org/namespaces/inkscape"
   xmlns:sodipodi="http://sodipodi.sourceforge.net/DTD/sodipodi-0.dtd"
   xmlns="http://www.w3.org/2000/svg"
   xmlns:svg="http://www.w3.org/2000/svg">
  <sodipodi:namedview
     id="namedview5475"
     pagecolor="#ffffff"
     bordercolor="#666666"
     borderopacity="1.0"
     inkscape:pageshadow="2"
     inkscape:pageopacity="0.0"
     inkscape:pagecheckerboard="0"
     inkscape:document-units="mm"
     showgrid="false"
     inkscape:zoom="0.72693603"
     inkscape:cx="197.40389"
     inkscape:cy="341.84576"
     inkscape:window-width="1834"
     inkscape:window-height="1009"
     inkscape:window-x="86"
     inkscape:window-y="34"
     inkscape:window-maximized="1"
     inkscape:current-layer="layer1" />
  <defs
     id="defs5470" />
  <g
     inkscape:label="Layer 1"
     inkscape:groupmode="layer"
     id="layer1">
    <g
       id="g4843"
       transform="matrix(0.35277777,0,0,0.35277777,-105.89207,-110.64469)">
      <g
         id="g232">
        <path
           d="m 305.316,330.309 c 0,-3.055 1.215,-5.989 3.375,-8.149 2.161,-2.16 5.09,-3.371 8.145,-3.371"
           style="fill:none;stroke:#000000;stroke-width:0.285;stroke-linecap:round;stroke-linejoin:round;stroke-miterlimit:10;stroke-dasharray:none;stroke-opacity:1"
           id="path234" />
      </g>
      <g
         id="g252">
        <path
           d="m 520.598,318.789 c 3.054,0 5.984,1.211 8.144,3.371 2.16,2.16 3.375,5.094 3.375,8.149"
           style="fill:none;stroke:#000000;stroke-width:0.285;stroke-linecap:round;stroke-linejoin:round;stroke-miterlimit:10;stroke-dasharray:none;stroke-opacity:1"
           id="path254" />
      </g>
      <g
         id="g256">
        <path
           d="m 525.051,330.359 c 0,2.481 -2.008,4.493 -4.492,4.493 -2.481,0 -4.493,-2.012 -4.493,-4.493 0,-2.48 2.012,-4.492 4.493,-4.492 2.484,0 4.492,2.012 4.492,4.492 z"
           style="fill:none;stroke:#000000;stroke-width:0.42;stroke-linecap:round;stroke-linejoin:round;stroke-miterlimit:10;stroke-dasharray:none;stroke-opacity:1"
           id="path258" />
      </g>
      <g
         id="g272">
        <path
           d="m 532.117,486.547 c 0,3.055 -1.215,5.984 -3.375,8.148 -2.16,2.16 -5.09,3.371 -8.144,3.371"
           style="fill:none;stroke:#000000;stroke-width:0.285;stroke-linecap:round;stroke-linejoin:round;stroke-miterlimit:10;stroke-dasharray:none;stroke-opacity:1"
           id="path274" />
      </g>
      <g
         id="g276">
        <path
           d="m 524.766,486.629 c 0,2.48 -2.008,4.492 -4.493,4.492 -2.48,0 -4.492,-2.012 -4.492,-4.492 0,-2.481 2.012,-4.492 4.492,-4.492 2.485,0 4.493,2.011 4.493,4.492 z"
           style="fill:none;stroke:#000000;stroke-width:0.42;stroke-linecap:round;stroke-linejoin:round;stroke-miterlimit:10;stroke-dasharray:none;stroke-opacity:1"
           id="path278" />
      </g>
      <g
         id="g280">
        <path
           d="M 532.109,330.301 V 486.539"
           style="fill:none;stroke:#000000;stroke-width:0.285;stroke-linecap:round;stroke-linejoin:round;stroke-miterlimit:10;stroke-dasharray:none;stroke-opacity:1"
           id="path282" />
      </g>
      <g
         id="g284">
        <path
           d="M 316.828,498.059 H 520.59"
           style="fill:none;stroke:#000000;stroke-width:0.285;stroke-linecap:round;stroke-linejoin:round;stroke-miterlimit:10;stroke-dasharray:none;stroke-opacity:1"
           id="path286" />
      </g>
      <g
         id="g288">
        <path
           d="M 520.59,318.781 H 316.828"
           style="fill:none;stroke:#000000;stroke-width:0.285;stroke-linecap:round;stroke-linejoin:round;stroke-miterlimit:10;stroke-dasharray:none;stroke-opacity:1"
           id="path290" />
      </g>
      <g
         id="g292">
        <path
           d="m 321.457,486.629 c 0,2.559 -2.07,4.629 -4.629,4.629 -2.555,0 -4.625,-2.07 -4.625,-4.629 0,-2.555 2.07,-4.625 4.625,-4.625 2.559,0 4.629,2.07 4.629,4.625 z"
           style="fill:none;stroke:#000000;stroke-width:0.42;stroke-linecap:round;stroke-linejoin:round;stroke-miterlimit:10;stroke-dasharray:none;stroke-opacity:1"
           id="path294" />
      </g>
      <g
         id="g296">
        <path
           d="M 305.309,486.539 V 330.301"
           style="fill:none;stroke:#000000;stroke-width:0.285;stroke-linecap:round;stroke-linejoin:round;stroke-miterlimit:10;stroke-dasharray:none;stroke-opacity:1"
           id="path298" />
      </g>
      <g
         id="g300">
        <path
           d="m 321.414,330.391 c 0,2.531 -2.055,4.582 -4.586,4.582 -2.527,0 -4.582,-2.051 -4.582,-4.582 0,-2.532 2.055,-4.582 4.582,-4.582 2.531,0 4.586,2.05 4.586,4.582 z"
           style="fill:none;stroke:#000000;stroke-width:0.42;stroke-linecap:round;stroke-linejoin:round;stroke-miterlimit:10;stroke-dasharray:none;stroke-opacity:1"
           id="path302" />
      </g>
      <g
         id="g304">
        <path
           d="m 316.836,498.066 c -3.055,0 -5.984,-1.211 -8.145,-3.371 -2.16,-2.164 -3.375,-5.093 -3.375,-8.148"
           style="fill:none;stroke:#000000;stroke-width:0.285;stroke-linecap:round;stroke-linejoin:round;stroke-miterlimit:10;stroke-dasharray:none;stroke-opacity:1"
           id="path306" />
      </g>
    </g>
  </g>
</svg>
